<?xml version="1.0" encoding="UTF-8" standalone="no"?>
<!-- Generator: Adobe Illustrator 17.1.0, SVG Export Plug-In . SVG Version: 6.00 Build 0)  -->
<!DOCTYPE svg  PUBLIC '-//W3C//DTD SVG 1.1//EN'  'http://www.w3.org/Graphics/SVG/1.1/DTD/svg11.dtd'>
<svg id="Layer_1" xmlns="http://www.w3.org/2000/svg" xml:space="preserve" viewBox="20 0 800 168" height="42px" width="200px" version="1.1" y="0px" x="0px" xmlns:xlink="http://www.w3.org/1999/xlink" enable-background="new 0 0 766 177">
<g fill="#fff">
	<path d="m84.9 92.7l1.1-6.9-0.5-0.5c-1.1 0.9-2.4 1.9-4.1 3-1.6 1.1-3.3 2.1-5.4 3.1-1.9 0.9-4.1 1.8-6.5 2.4-2.3 0.7-4.9 1.1-7.7 1.1-4.6 0-8.9-0.7-12.8-2.2s-7.3-3.7-10.3-6.8c-2.9-3.1-5.1-7-6.8-11.7-1.6-4.7-2.4-10.3-2.4-16.8s0.8-12 2.4-16.7 3.9-8.6 6.8-11.7c3-3.1 6.4-5.4 10.3-6.9 4-1.5 8.2-2.2 12.8-2.2 2.8 0 5.4 0.4 7.7 1.2 2.3 0.7 4.4 1.6 6.3 2.7s3.5 2.2 4.9 3.4 2.5 2.2 3.3 3.1l0.7-0.2c0.2-1.2 0.5-2.8 0.9-4.7s0.9-3.3 1.5-4.4c-3.3-1.5-7-2.7-11.3-3.7-4.2-1.1-8.9-1.6-14-1.6-6.5 0-12.4 0.9-17.7 2.8-5.4 1.9-10 4.6-13.9 8.2-3.8 3.6-6.8 8-9 13.2-2.1 5.3-3.2 11.1-3.2 17.7s1 12.5 3.1 17.7c2.2 5.1 5.1 9.5 8.9 13.1s8.3 6.3 13.5 8 10.9 2.6 17 2.6c2.9 0 5.6-0.2 8.3-0.7 2.6-0.5 5-1 7.1-1.5 2.2-0.6 4-1.3 5.5-2 1.6-0.7 2.8-1.4 3.5-2.1z"/>
	<path d="m102.3 47.6v20.1c0 5.1-0.1 10.2-0.4 15.2-0.2 5-0.3 9.9-0.6 14.7 3.7-0.2 7.3-0.2 10.7-0.2h10.8 10.7c3.6 0 7.2 0.1 10.7 0.2-0.4-1.2-0.6-2.3-0.6-3.1 0-0.9 0.2-2.1 0.6-3.5-5.8 0.8-11.3 1.2-16.3 1.4-5.1 0.1-10.3 0.1-15.9 0.1-0.1-5.7-0.2-12.1-0.2-19.2-0.1-7.2-0.1-15.7-0.1-25.5 0-5.1 0.1-10.1 0.2-15 0.2-5 0.5-10 0.7-15.2-1 0.2-2 0.3-2.9 0.5-0.9 0.1-1.9 0.1-2.8 0.1s-1.9 0-2.8-0.1c-0.9-0.2-1.9-0.3-2.9-0.5 0.2 5.1 0.4 10.2 0.6 15.2 0.4 4.7 0.5 9.7 0.5 14.8z"/>
	<path clip-rule="evenodd" d="m154.1 57.6c0 6.6 1.1 12.5 3.1 17.7 2.2 5.1 5.2 9.5 9 13.1 3.9 3.6 8.5 6.3 13.9 8s11.2 2.6 17.6 2.6c6.5 0 12.4-0.9 17.7-2.6 5.4-1.8 9.9-4.5 13.8-8 3.9-3.6 6.9-7.9 9-13.1 2.2-5.2 3.3-11.1 3.3-17.7s-1.1-12.5-3.3-17.6c-2.1-5.2-5.1-9.6-9-13.2-3.8-3.6-8.4-6.3-13.8-8.2s-11.3-2.8-17.7-2.8-12.2 0.9-17.6 2.8-10 4.6-13.9 8.2c-3.8 3.6-6.8 8-9 13.2-2 5.2-3.1 11-3.1 17.6zm75.9 0c0 6.5-0.8 12-2.4 16.8-1.6 4.7-3.9 8.6-6.9 11.7-2.9 3-6.3 5.3-10.3 6.8-3.9 1.5-8.1 2.2-12.7 2.2-4.5 0-8.7-0.7-12.7-2.2-3.9-1.5-7.3-3.7-10.3-6.8-2.9-3.1-5.1-7-6.8-11.7-1.6-4.7-2.4-10.3-2.4-16.8s0.8-12 2.4-16.7 3.9-8.6 6.8-11.7c3-3.1 6.4-5.4 10.3-6.9 4-1.5 8.2-2.2 12.7-2.2 4.6 0 8.8 0.7 12.7 2.2 4 1.5 7.4 3.8 10.3 6.9 3 3 5.2 6.9 6.9 11.7 1.6 4.7 2.4 10.3 2.4 16.7z" fill-rule="evenodd"/>
	<path d="m276.5 97.5c1-0.2 2.3-0.2 3.8-0.2 1.3 0 2.6 0.1 3.8 0.2 5.1-13.3 10.5-26.6 16.1-39.9s11.4-26.7 17.5-40.2c-1.7 0.4-3.1 0.6-4.3 0.6s-2.6-0.2-4.3-0.6c-0.9 2.6-1.9 5.6-3.1 9.1s-2.6 7.3-4.2 11.3c-1.5 4-3 8.3-4.7 12.7-1.6 4.4-3.3 8.7-5 12.9-1.6 4.2-3.3 8.3-4.9 12.2s-3.1 7.4-4.5 10.6c-2.5-5.9-4.9-11.9-7.3-17.8-2.4-6-4.8-11.9-7.1-17.7s-4.4-11.5-6.5-17.1c-2-5.7-3.9-11.1-5.6-16.2-1.1 0.2-2.1 0.3-3.1 0.5-1 0.1-2 0.1-2.9 0.1s-1.9 0-2.9-0.1c-1-0.2-2.1-0.3-3.1-0.5 2.8 6.7 5.7 13.8 8.7 21.2 3.1 7.5 6.1 14.8 9 21.9 3 7.1 5.7 14 8.3 20.4 2.4 6.5 4.5 12 6.3 16.6z"/>
	<path d="m331.2 47.5v20.1c0 5.1-0.1 10.2-0.4 15.2-0.2 4.9-0.3 9.8-0.6 14.8 3.6-0.2 7.1-0.2 10.6-0.2h10.6 10.5c3.5 0 7 0.1 10.5 0.2-0.2-0.8-0.4-1.8-0.4-3v-1.8c0.1-0.7 0.2-1.3 0.4-1.9-1.9 0.4-4.1 0.7-6.6 0.9s-5.2 0.3-8 0.5c-2.8 0.1-5.7 0.1-8.6 0.1h-8.2c-0.1-1.5-0.2-3.7-0.2-6.5v-11-11.5-3c0.1-0.9 0.1-1.6 0.1-2.3 1.4 0 3.3 0 5.6 0.1 2.4 0 4.9 0 7.6 0.1 2.7 0 5.4 0.1 8 0.2 2.7 0.2 5.1 0.3 7.1 0.6-0.2-1.2-0.4-2.3-0.4-3.5s0.1-2.4 0.4-3.6c-1.7 0.2-3.5 0.3-5.5 0.5-1.9 0.1-3.9 0.2-6.2 0.3s-4.7 0.2-7.5 0.2c-2.7 0.1-5.8 0.1-9.2 0.1 0-1.5 0-3.7-0.1-6.5v-8.9c0-2.9 0-5.4 0.1-7.7 0.2-2.3 0.3-4.6 0.3-7.1 3.8 0 7.1 0.1 9.8 0.2s5.2 0.2 7.5 0.3c2.3 0.2 4.5 0.3 6.5 0.5 2.1 0.2 4.4 0.3 6.9 0.5-0.2-1.2-0.4-2.3-0.4-3.5s0.1-2.3 0.4-3.5c-3.5 0.2-7 0.3-10.4 0.5-3.4 0.1-6.9 0.1-10.4 0.1s-7 0-10.5-0.1c-3.4-0.2-6.9-0.3-10.4-0.5 0.2 5 0.4 10 0.6 14.9 0.4 5 0.5 10.1 0.5 15.2z"/>
	<path clip-rule="evenodd" d="m389.5 47.6v20.1c0 5.1-0.1 10.2-0.4 15.2-0.2 5-0.3 9.9-0.6 14.7 1.8-0.2 3.7-0.2 5.7-0.2s3.9 0.1 5.7 0.2c-0.2-4.8-0.5-9.7-0.7-14.7s-0.2-10-0.2-15.2v-8.5h4.4c2.5 2.6 5.2 5.7 8.2 9.4s6 7.3 8.9 11.1c2.9 3.7 5.5 7.2 7.8 10.5 2.4 3.3 4.2 5.7 5.4 7.3 1.1-0.2 2.2-0.2 3.4-0.2h3.4 3.5c1.2 0 2.3 0.1 3.5 0.2-1.1-1.1-2.5-2.7-4.3-4.8s-3.7-4.4-5.7-6.9c-2-2.6-4.1-5.2-6.3-7.9-2.2-2.8-4.3-5.4-6.3-7.9-2-2.6-3.8-4.9-5.5-7-1.6-2.1-2.9-3.7-3.8-4.9 2.3-0.3 4.7-0.9 7.5-1.9s5.4-2.4 7.8-4.1c2.4-1.8 4.4-4 6.1-6.6 1.7-2.7 2.6-5.9 2.6-9.7 0-3.5-0.7-6.4-2-8.7-1.2-2.3-3-4.2-5.2-5.6-2.2-1.5-4.7-2.5-7.7-3.1s-6.1-0.9-9.3-0.9c-2.3 0-4.5 0.1-6.6 0.4-2.2 0.2-4.4 0.2-6.6 0.2-2.3 0-4.5 0-6.6-0.1-2.2-0.2-4.4-0.3-6.6-0.5 0.2 5.1 0.4 10.2 0.6 15.2-0.2 4.8-0.1 9.8-0.1 14.9zm9.6 6.7v-6.6c0-4.2 0.1-8.4 0.2-12.6 0.2-4.2 0.3-8.4 0.5-12.7 1.2-0.2 2.8-0.3 4.5-0.4 1.8-0.2 4-0.2 6.8-0.2 2 0 4.1 0.2 6.2 0.7 2.1 0.4 4 1.2 5.8 2.3 1.8 1.2 3.2 2.8 4.3 4.8 1.2 1.9 1.7 4.4 1.7 7.5 0 3.5-0.7 6.4-2.2 8.7-1.4 2.3-3.2 4.1-5.4 5.5-2.2 1.3-4.6 2.3-7.2 2.8s-5.1 0.8-7.5 0.8c-1.6 0-3 0-4.3-0.1-1.2-0.2-2.3-0.3-3.4-0.5z" fill-rule="evenodd"/>
	<path clip-rule="evenodd" d="m502.7 56.3v-34.6h10.5c3 0 5.8 0.2 8.2 0.7 2.4 0.4 4.4 1.2 6.1 2.3 1.7 1.2 3 2.8 4 4.9 0.9 2.1 1.4 4.8 1.4 8.2 0 4-0.7 7.2-2.1 9.8-1.3 2.5-3.1 4.5-5.2 5.9s-4.4 2.4-7 2.9-5.1 0.8-7.5 0.8c-3 0.1-5.7-0.2-8.4-0.9zm-9.5-8.7v20.1c0 5.1-0.1 10.2-0.3 15.2s-0.3 9.9-0.6 14.7c1.8-0.2 3.7-0.2 5.7-0.2s3.9 0.1 5.7 0.2c-0.2-4.8-0.5-9.7-0.7-14.7s-0.2-10-0.2-15.2v-6.4c1.6 0.2 3.1 0.3 4.5 0.3h4.9c2.8 0 6-0.3 9.6-0.9 3.7-0.6 7.1-1.8 10.3-3.6 3.3-1.8 6-4.3 8.2-7.5 2.3-3.2 3.4-7.3 3.4-12.5 0-3.3-0.5-6-1.4-8.2-0.9-2.3-2.2-4.1-3.7-5.6s-3.1-2.6-5-3.4-3.8-1.4-5.7-1.7c-1.9-0.4-3.7-0.6-5.4-0.7s-3.1-0.1-4.3-0.1c-0.9 0-1.9 0-3.1 0.1s-2.6 0.2-4 0.2c-1.3 0-2.6 0-4 0.1-1.3 0.1-2.4 0.1-3.4 0.1-1.9 0-3.8 0-5.7-0.1-1.9-0.2-3.7-0.3-5.6-0.5 0.2 5.1 0.4 10.2 0.6 15.2 0.1 5 0.2 10 0.2 15.1z" fill-rule="evenodd"/>
	<path clip-rule="evenodd" d="m564.3 61.2c2 0 4.1 0 6.3 0.1s4.3 0.1 6.3 0.1h6.5c2.2-0.1 4.4-0.2 6.5-0.2l-12.9-29.6-12.7 29.6zm51.7 36.3c-1.1-0.2-2.1-0.2-3.2-0.2h-3-3.1c-0.9 0-1.9 0.1-3 0.2-0.5-1.8-1.3-3.9-2.2-6.4-0.9-2.6-2-5.2-3.2-7.9-1.1-2.8-2.2-5.6-3.4-8.4-1.2-2.9-2.3-5.6-3.3-8.2-2.5-0.1-5-0.1-7.6-0.1-2.6-0.1-5.1-0.1-7.7-0.1-2.4 0-4.8 0-7.1 0.1-2.3 0-4.7 0-7.1 0.1-2.5 6.1-4.7 11.9-6.8 17.4-2 5.4-3.5 10-4.5 13.5-1.3-0.2-2.8-0.2-4.3-0.2-1.6 0-3 0.1-4.3 0.2 6.3-13.6 12.4-27.1 18.4-40.6 6-13.4 12-27.1 18.1-41h2.2c1.9 4.5 3.9 9.4 6.1 14.7 2.2 5.2 4.4 10.5 6.6 15.9 2.3 5.4 4.5 10.7 6.8 16s4.4 10.2 6.3 14.8c2 4.5 3.8 8.6 5.4 12.1 1.5 3.5 2.8 6.2 3.9 8.1z" fill-rule="evenodd"/>
	<path clip-rule="evenodd" d="m629.4 47.6v20.1c0 5.1-0.1 10.2-0.3 15.2s-0.3 9.9-0.6 14.7c1.8-0.2 3.7-0.2 5.7-0.2s3.9 0.1 5.7 0.2c-0.2-4.8-0.5-9.7-0.7-14.7s-0.2-10-0.2-15.2v-8.5h4.4c2.5 2.6 5.2 5.7 8.2 9.4s6 7.3 8.9 11.1c2.9 3.7 5.5 7.2 7.8 10.5 2.4 3.3 4.2 5.7 5.4 7.3 1.1-0.2 2.2-0.2 3.4-0.2h3.4 3.5c1.2 0 2.3 0.1 3.5 0.2-1.1-1.1-2.5-2.7-4.3-4.8s-3.7-4.4-5.7-6.9c-2-2.6-4.1-5.2-6.3-7.9-2.2-2.8-4.3-5.4-6.3-7.9-2-2.6-3.8-4.9-5.5-7-1.6-2.1-2.9-3.7-3.8-4.9 2.3-0.3 4.7-0.9 7.5-1.9s5.4-2.4 7.8-4.1c2.4-1.8 4.4-4 6.1-6.6 1.7-2.7 2.6-5.9 2.6-9.7 0-3.5-0.7-6.4-2-8.7-1.2-2.3-3-4.2-5.2-5.6-2.2-1.5-4.7-2.5-7.7-3.1s-6.1-0.9-9.3-0.9c-2.3 0-4.5 0.1-6.6 0.4-2.2 0.2-4.4 0.2-6.6 0.2-2.3 0-4.5 0-6.6-0.1-2.2-0.2-4.4-0.3-6.6-0.5 0.2 5.1 0.4 10.2 0.6 15.2-0.4 4.8-0.2 9.8-0.2 14.9zm9.5 6.7v-6.6c0-4.2 0.1-8.4 0.2-12.6 0.2-4.2 0.3-8.4 0.5-12.7 1.2-0.2 2.8-0.3 4.5-0.4 1.8-0.2 4-0.2 6.8-0.2 2 0 4.1 0.2 6.2 0.7 2.1 0.4 4 1.2 5.8 2.3 1.8 1.2 3.2 2.8 4.3 4.8 1.2 1.9 1.8 4.4 1.8 7.5 0 3.5-0.7 6.4-2.2 8.7-1.4 2.3-3.2 4.1-5.4 5.5-2.2 1.3-4.6 2.3-7.2 2.8s-5.1 0.8-7.5 0.8c-1.6 0-3 0-4.3-0.1-1.2-0.2-2.4-0.3-3.5-0.5z" fill-rule="evenodd"/>
	<path d="m699.7 97.5c1.8-0.2 3.7-0.2 5.7-0.2s3.9 0.1 5.7 0.2c-0.2-4.8-0.5-9.7-0.7-14.7s-0.2-10-0.2-15.2v-10.1c0-0.5 0.2-0.7 0.6-0.7 0.3 0 0.8 0.3 1.4 0.9 1.2 1.2 3.1 3.4 5.7 6.5 2.6 3 5.6 6.5 8.7 10.4 3.3 3.8 6.6 7.8 9.9 11.9 3.4 4.1 6.5 7.8 9.3 11 1.1-0.2 2.1-0.2 3.1-0.2h3.3 3.5c1.2 0 2.3 0.1 3.5 0.2-6.6-7.4-13.1-14.7-19.6-22-6.4-7.4-12.7-14.6-19-21.7 2.1-2.4 4.7-5.2 7.8-8.4 3.2-3.3 6.5-6.6 9.9-9.9 3.5-3.3 7-6.6 10.4-9.8s6.5-5.9 9.2-8.3c-0.9 0.2-1.9 0.3-2.8 0.5-0.9 0.1-1.9 0.1-2.8 0.1-0.8 0-1.6 0-2.3-0.1-0.8-0.2-1.6-0.3-2.5-0.5-2.7 3.1-5.6 6.3-8.5 9.7-3 3.3-5.9 6.5-9 9.7-3 3.2-6.1 6.3-9.1 9.2-3 3-5.8 5.6-8.5 7.9-0.8 0.7-1.3 1-1.6 1-0.5 0-0.7-0.3-0.7-0.9v-6.4c0-5.1 0.1-10.1 0.2-15 0.2-5 0.5-10 0.7-15.2-1 0.2-2 0.3-2.9 0.5-0.9 0.1-1.9 0.1-2.8 0.1s-1.9 0-2.8-0.1c-0.9-0.2-1.9-0.3-2.9-0.5 0.2 5.1 0.4 10.2 0.6 15.2 0.2 4.9 0.4 9.9 0.4 15v20.1c0 5.1-0.1 10.2-0.4 15.2-0.1 4.9-0.3 9.8-0.5 14.6z"/>
</g>
<g fill="#fff">
	<path d="m524.6 127.4c-1-1-2.1-1.7-3.3-2.2-1.3-0.5-2.7-0.7-4.2-0.7s-2.8 0.2-4.1 0.7-2.4 1.2-3.3 2.2c-1 1-1.7 2.3-2.2 3.8s-0.8 3.3-0.8 5.5c0 2.1 0.3 3.9 0.8 5.5 0.5 1.5 1.3 2.8 2.2 3.8 1 1 2.1 1.7 3.3 2.2 1.3 0.5 2.7 0.7 4.1 0.7 1.5 0 2.9-0.2 4.2-0.7s2.4-1.2 3.3-2.2 1.7-2.3 2.2-3.8 0.8-3.4 0.8-5.5-0.3-3.9-0.8-5.5-1.2-2.8-2.2-3.8z"/>
	<path d="m346.8 137.8h2.1 2.1 2.1c0.7 0 1.4 0 2.1-0.1l-4.2-9.7-4.2 9.8z"/>
	<path d="m14.5 111.8v50.2h748.5v-50.2h-748.5zm42.4 14.1c-0.5-0.1-1.1-0.1-1.8-0.2s-1.4-0.1-2.1-0.1-1.4-0.1-2.2-0.1h-2.1c-0.1 2.6-0.1 5.2-0.1 7.9v6.5c0 1.7 0 3.3 0.1 4.9s0.1 3.2 0.2 4.8c-0.6-0.1-1.2-0.1-1.9-0.1s-1.3 0-1.9 0.1c0.1-1.6 0.1-3.2 0.2-4.8s0.1-3.3 0.1-4.9v-6.5c0-2.6 0-5.3-0.1-7.9h-2.1c-0.7 0-1.4 0-2.2 0.1-0.7 0-1.4 0.1-2.1 0.1-0.7 0.1-1.3 0.1-1.8 0.2 0.1-0.5 0.2-0.9 0.2-1.2s-0.1-0.7-0.2-1.2c1.7 0.1 3.3 0.1 4.9 0.1s3.2 0.1 4.9 0.1 3.3 0 4.9-0.1c1.6 0 3.2-0.1 4.9-0.1-0.1 0.5-0.2 0.9-0.2 1.2 0.2 0.4 0.3 0.7 0.4 1.2zm38.4 23.7c-1.1-0.1-2.3-0.1-3.4-0.1h-3.4-3.5c-1.1 0-2.3 0-3.5 0.1 0.1-1.6 0.1-3.2 0.2-4.8s0.1-3.2 0.1-4.9v-6.5c0-1.7 0-3.3-0.1-4.9s-0.1-3.2-0.2-4.9c1.1 0.1 2.3 0.1 3.4 0.1s2.3 0.1 3.4 0.1 2.3 0 3.4-0.1c1.1 0 2.2-0.1 3.4-0.1-0.1 0.4-0.1 0.8-0.1 1.1 0 0.4 0 0.8 0.1 1.1-0.8-0.1-1.6-0.1-2.2-0.2-0.7-0.1-1.4-0.1-2.1-0.2s-1.6-0.1-2.5-0.1-2-0.1-3.2-0.1c0 0.8-0.1 1.6-0.1 2.3s-0.1 1.6-0.1 2.5v2.9 2.1h3c0.9 0 1.7-0.1 2.4-0.1s1.4-0.1 2-0.1 1.2-0.1 1.8-0.1c-0.1 0.4-0.1 0.8-0.1 1.2s0 0.8 0.1 1.1c-0.7-0.1-1.4-0.1-2.3-0.2s-1.7-0.1-2.6-0.1h-2.5-1.8v0.7 1 3.8 3.6c0 0.9 0 1.6 0.1 2.1h2.7c1 0 1.9 0 2.8-0.1 0.9 0 1.8-0.1 2.6-0.2s1.5-0.2 2.1-0.3c-0.1 0.2-0.1 0.4-0.1 0.6v0.6c0.1 0.5 0.2 0.9 0.2 1.1zm28.5-7.5c0.5 1.5 1.3 2.8 2.2 3.8 1 1 2.1 1.7 3.3 2.2 1.3 0.5 2.7 0.7 4.2 0.7 0.9 0 1.8-0.1 2.5-0.3 0.8-0.2 1.5-0.5 2.1-0.8s1.2-0.7 1.7-1c0.5-0.4 1-0.7 1.3-1l0.2 0.2-0.3 2.2c-0.2 0.2-0.6 0.4-1.1 0.7-0.5 0.2-1.1 0.5-1.8 0.6-0.7 0.2-1.5 0.4-2.3 0.5-0.9 0.2-1.8 0.2-2.7 0.2-2 0-3.9-0.3-5.5-0.9-1.7-0.6-3.2-1.4-4.4-2.6s-2.2-2.6-2.9-4.3-1-3.6-1-5.8 0.3-4.1 1-5.8 1.7-3.1 2.9-4.3c1.3-1.2 2.8-2.1 4.5-2.7s3.7-0.9 5.8-0.9c1.7 0 3.2 0.2 4.6 0.5s2.6 0.8 3.7 1.2c-0.2 0.4-0.4 0.8-0.5 1.4s-0.2 1.1-0.3 1.5l-0.2 0.1c-0.3-0.3-0.6-0.6-1.1-1s-1-0.7-1.6-1.1-1.3-0.7-2.1-0.9-1.6-0.4-2.5-0.4c-1.5 0-2.9 0.2-4.2 0.7s-2.4 1.2-3.3 2.2-1.7 2.3-2.2 3.8-0.8 3.3-0.8 5.5c0 2.4 0.3 4.2 0.8 5.8zm65.7 2.7c0.1 1.6 0.1 3.2 0.2 4.8-0.6-0.1-1.2-0.1-1.9-0.1s-1.3 0-1.9 0.1c0.1-1.6 0.1-3.2 0.2-4.8s0.1-3.3 0.1-4.9v-3.4c-1.4 0-2.7 0-4-0.1h-4-4c-1.3 0-2.6 0-4 0.1v3.4c0 1.7 0 3.3 0.1 4.9s0.1 3.2 0.2 4.8c-0.6-0.1-1.2-0.1-1.9-0.1s-1.3 0-1.9 0.1c0.1-1.6 0.1-3.2 0.2-4.8s0.1-3.3 0.1-4.9v-6.5c0-1.7 0-3.3-0.1-4.9s-0.1-3.2-0.2-4.9c0.3 0.1 0.6 0.1 1 0.1 0.3 0 0.6 0.1 0.9 0.1s0.6 0 0.9-0.1c0.3 0 0.6-0.1 1-0.1-0.1 1.7-0.1 3.3-0.2 4.9s-0.1 3.2-0.1 4.9v1.3c1.4 0 2.7 0.1 4 0.1h4 4c1.3 0 2.6 0 4-0.1v-1.3c0-1.7 0-3.3-0.1-4.9s-0.1-3.2-0.2-4.9c0.3 0.1 0.6 0.1 1 0.1 0.3 0 0.6 0.1 0.9 0.1s0.6 0 0.9-0.1c0.3 0 0.6-0.1 1-0.1-0.1 1.7-0.1 3.3-0.2 4.9s-0.1 3.2-0.1 4.9v6.5c0 1.7 0 3.3 0.1 4.9zm50.1-18.8c-0.1 1.1-0.1 2.3-0.2 3.6s-0.1 2.5-0.2 3.7-0.1 2.2-0.1 2.9v2.3 2.7 2.8 2.7 2.1 1.3h-0.5c-2.9-3.4-6-6.8-9.3-10.4l-9.9-10.5c0 0.7-0.1 1.7-0.1 2.8v4.9 2 2.5c0 0.9 0 1.7 0.1 2.6 0 0.9 0.1 1.7 0.1 2.5s0.1 1.4 0.1 2 0.1 1 0.1 1.2c-0.4-0.1-0.8-0.1-1.3-0.1s-1 0-1.4 0.1c0.1-0.3 0.1-0.7 0.2-1.4s0.1-1.5 0.2-2.5 0.1-2 0.2-3.1 0.1-2.2 0.2-3.3c0-1.1 0.1-2.2 0.1-3.3v-2.8-6.3c0-1.7 0-3.1-0.1-3.9h0.6c1.5 1.7 3.2 3.5 5 5.4s3.5 3.8 5.2 5.7 3.4 3.6 4.9 5.3c1.6 1.7 2.9 3.1 4.1 4.2v-5.2c0-2.7 0-5.2-0.1-7.8 0-2.5-0.1-4.9-0.2-7.1 0.5 0.1 0.9 0.2 1.3 0.2 0.3 0 0.7-0.1 1.2-0.2-0.1 0.5-0.1 1.3-0.2 2.4zm31.1 18.8c0.1 1.6 0.1 3.2 0.2 4.8-0.6-0.1-1.2-0.1-1.9-0.1s-1.3 0-1.9 0.1c0.1-1.6 0.1-3.2 0.2-4.8s0.1-3.3 0.1-4.9v-6.5c0-1.7 0-3.3-0.1-4.9s-0.1-3.2-0.2-4.9c0.3 0.1 0.6 0.1 1 0.1 0.3 0 0.6 0.1 0.9 0.1s0.6 0 0.9-0.1c0.3 0 0.6-0.1 1-0.1-0.1 1.7-0.1 3.3-0.2 4.9s-0.1 3.2-0.1 4.9v6.5c0 1.7 0 3.3 0.1 4.9zm30.2-2.7c0.5 1.5 1.3 2.8 2.2 3.8 1 1 2.1 1.7 3.3 2.2 1.3 0.5 2.7 0.7 4.2 0.7 0.9 0 1.8-0.1 2.5-0.3 0.8-0.2 1.5-0.5 2.1-0.8s1.2-0.7 1.7-1c0.5-0.4 1-0.7 1.3-1l0.2 0.2-0.3 2.2c-0.2 0.2-0.6 0.4-1.1 0.7-0.5 0.2-1.1 0.5-1.8 0.6-0.7 0.2-1.5 0.4-2.3 0.5-0.9 0.2-1.8 0.2-2.7 0.2-2 0-3.9-0.3-5.5-0.9-1.7-0.6-3.2-1.4-4.4-2.6s-2.2-2.6-2.9-4.3-1-3.6-1-5.8 0.3-4.1 1-5.8 1.7-3.1 2.9-4.3c1.3-1.2 2.8-2.1 4.5-2.7s3.7-0.9 5.8-0.9c1.7 0 3.2 0.2 4.6 0.5s2.6 0.8 3.7 1.2c-0.2 0.4-0.4 0.8-0.5 1.4s-0.2 1.1-0.3 1.5l-0.2 0.1c-0.3-0.3-0.6-0.6-1.1-1s-1-0.7-1.6-1.1-1.3-0.7-2.1-0.9-1.6-0.4-2.5-0.4c-1.5 0-2.9 0.2-4.2 0.7s-2.4 1.2-3.3 2.2-1.7 2.3-2.2 3.8-0.8 3.3-0.8 5.5c0 2.4 0.3 4.2 0.8 5.8zm61.8 7.4h-1-1c-0.3 0-0.7 0-1 0.1-0.2-0.6-0.4-1.3-0.7-2.1s-0.6-1.7-1-2.6-0.7-1.8-1.1-2.7-0.7-1.8-1.1-2.6c-0.8 0-1.6 0-2.5-0.1h-2.5-2.3c-0.8 0-1.5 0-2.3 0.1-0.8 2-1.5 3.9-2.2 5.6-0.7 1.8-1.2 3.3-1.5 4.4-0.4-0.1-0.9-0.1-1.4-0.1s-1 0-1.4 0.1c2.1-4.4 4.1-8.8 6-13.2 2-4.4 3.9-8.8 5.9-13.4h0.7c0.6 1.5 1.3 3.1 2 4.8s1.4 3.4 2.2 5.2c0.7 1.7 1.5 3.5 2.2 5.2s1.4 3.3 2.1 4.8c0.6 1.5 1.2 2.8 1.7 4s0.9 2.1 1.3 2.7c-0.5-0.1-0.8-0.2-1.1-0.2zm39.6 0.1c-1.2-0.1-2.3-0.1-3.5-0.1h-3.5-3.5c-1.1 0-2.3 0-3.5 0.1 0.1-1.6 0.1-3.2 0.2-4.8s0.1-3.3 0.1-4.9v-6.5c0-1.7 0-3.3-0.1-4.9s-0.1-3.2-0.2-4.9c0.3 0.1 0.6 0.1 0.9 0.1s0.6 0.1 0.9 0.1 0.6 0 0.9-0.1c0.3 0 0.6-0.1 1-0.1-0.1 1.7-0.1 3.3-0.2 4.9s-0.1 3.2-0.1 4.9v8.3c0 2.3 0.1 4.4 0.1 6.3 1.8 0 3.5 0 5.2-0.1 1.6 0 3.4-0.2 5.3-0.4-0.1 0.5-0.2 0.8-0.2 1.1s0 0.6 0.2 1zm59.2-7.5c0.5 1.5 1.3 2.8 2.2 3.8 1 1 2.1 1.7 3.3 2.2 1.3 0.5 2.7 0.7 4.2 0.7 0.9 0 1.8-0.1 2.5-0.3 0.8-0.2 1.5-0.5 2.1-0.8s1.2-0.7 1.7-1c0.5-0.4 1-0.7 1.3-1l0.2 0.2-0.3 2.2c-0.2 0.2-0.6 0.4-1.1 0.7-0.5 0.2-1.1 0.5-1.8 0.6-0.7 0.2-1.5 0.4-2.3 0.5-0.9 0.2-1.8 0.2-2.7 0.2-2 0-3.9-0.3-5.5-0.9-1.7-0.6-3.2-1.4-4.4-2.6s-2.2-2.6-2.9-4.3-1-3.6-1-5.8 0.3-4.1 1-5.8 1.7-3.1 2.9-4.3c1.3-1.2 2.8-2.1 4.5-2.7s3.7-0.9 5.8-0.9c1.7 0 3.2 0.2 4.6 0.5s2.6 0.8 3.7 1.2c-0.2 0.4-0.4 0.8-0.5 1.4s-0.2 1.1-0.3 1.5l-0.2 0.1c-0.3-0.3-0.6-0.6-1.1-1s-1-0.7-1.6-1.1-1.3-0.7-2.1-0.9-1.6-0.4-2.5-0.4c-1.5 0-2.9 0.2-4.2 0.7s-2.4 1.2-3.3 2.2c-1 1-1.7 2.3-2.2 3.8s-0.8 3.3-0.8 5.5c0.1 2.4 0.3 4.2 0.8 5.8zm68.8 0.3c-0.7 1.7-1.7 3.1-2.9 4.3-1.3 1.2-2.8 2-4.5 2.6s-3.7 0.9-5.8 0.9-4-0.3-5.7-0.9-3.2-1.4-4.5-2.6-2.2-2.6-2.9-4.3-1-3.6-1-5.8 0.3-4.1 1-5.8 1.7-3.1 2.9-4.3c1.3-1.2 2.8-2.1 4.5-2.7s3.7-0.9 5.7-0.9c2.1 0 4 0.3 5.8 0.9 1.7 0.6 3.2 1.5 4.5 2.7s2.2 2.6 2.9 4.3 1 3.6 1 5.8c0.1 2.2-0.3 4.1-1 5.8zm40.6 7.2c-1.2-0.1-2.3-0.1-3.5-0.1h-3.5-3.5c-1.1 0-2.3 0-3.5 0.1 0.1-1.6 0.1-3.2 0.2-4.8s0.1-3.3 0.1-4.9v-6.5c0-1.7 0-3.3-0.1-4.9s-0.1-3.2-0.2-4.9c0.3 0.1 0.6 0.1 1 0.1 0.3 0 0.6 0.1 0.9 0.1s0.6 0 0.9-0.1c0.3 0 0.6-0.1 0.9-0.1-0.1 1.7-0.1 3.3-0.2 4.9s-0.1 3.2-0.1 4.9v8.3c0 2.3 0.1 4.4 0.1 6.3 1.8 0 3.5 0 5.2-0.1 1.6 0 3.4-0.2 5.3-0.4-0.1 0.5-0.2 0.8-0.2 1.1s0.1 0.6 0.2 1zm39.5 0c-1.2-0.1-2.3-0.1-3.5-0.1h-3.5-3.5c-1.1 0-2.3 0-3.5 0.1 0.1-1.6 0.1-3.2 0.2-4.8s0.1-3.3 0.1-4.9v-6.5c0-1.7 0-3.3-0.1-4.9s-0.1-3.2-0.2-4.9c0.3 0.1 0.6 0.1 1 0.1 0.3 0 0.6 0.1 0.9 0.1s0.6 0 0.9-0.1c0.3 0 0.6-0.1 0.9-0.1-0.1 1.7-0.1 3.3-0.2 4.9s-0.1 3.2-0.1 4.9v8.3c0 2.3 0.1 4.4 0.1 6.3 1.8 0 3.5 0 5.2-0.1 1.6 0 3.4-0.2 5.3-0.4-0.1 0.5-0.2 0.8-0.2 1.1s0.1 0.6 0.2 1zm39.3 0c-1.1-0.1-2.3-0.1-3.4-0.1h-3.4-3.5c-1.1 0-2.3 0-3.5 0.1 0.1-1.6 0.1-3.2 0.2-4.8s0.1-3.2 0.1-4.9v-6.5c0-1.7 0-3.3-0.1-4.9s-0.1-3.2-0.2-4.9c1.1 0.1 2.3 0.1 3.4 0.1s2.3 0.1 3.4 0.1 2.3 0 3.4-0.1c1.1 0 2.2-0.1 3.4-0.1-0.1 0.4-0.1 0.8-0.1 1.1 0 0.4 0 0.8 0.1 1.1-0.8-0.1-1.6-0.1-2.2-0.2-0.7-0.1-1.4-0.1-2.1-0.2s-1.6-0.1-2.5-0.1-2-0.1-3.2-0.1c0 0.8-0.1 1.6-0.1 2.3s-0.1 1.6-0.1 2.5v2.9 2.1h3c0.9 0 1.7-0.1 2.4-0.1s1.4-0.1 2-0.1 1.2-0.1 1.8-0.1c-0.1 0.4-0.1 0.8-0.1 1.2s0 0.8 0.1 1.1c-0.7-0.1-1.4-0.1-2.3-0.2s-1.7-0.1-2.6-0.1h-2.5-1.8v0.7 1 3.8 3.6c0 0.9 0 1.6 0.1 2.1h2.7c1 0 1.9 0 2.8-0.1 0.9 0 1.8-0.1 2.6-0.2s1.5-0.2 2.1-0.3c-0.1 0.2-0.1 0.4-0.1 0.6v0.6c0.1 0.5 0.1 0.9 0.2 1.1zm29.1-8c0.5 1.5 1.2 2.8 2.2 3.8s2.2 1.8 3.6 2.4 3 0.8 4.8 0.8c0.5 0 1.1 0 1.7-0.1s1.1-0.1 1.7-0.2c0.5-0.1 1.1-0.2 1.5-0.4 0.5-0.2 0.9-0.3 1.2-0.5 0-0.8 0-1.5 0.1-2.3s0-1.5 0-2.3c0-0.9 0-1.8-0.1-2.7 0-0.9-0.1-1.7-0.1-2.5 0.6 0.1 1.2 0.2 1.8 0.2h0.8c0.3 0 0.5-0.1 0.8-0.2-0.1 0.6-0.1 1.5-0.1 2.8v5 1.5 1.5c-0.5 0.2-1.2 0.4-2 0.6s-1.6 0.4-2.5 0.5-1.8 0.3-2.7 0.4-1.7 0.2-2.5 0.2c-2.3 0-4.3-0.3-6.1-0.8s-3.4-1.4-4.6-2.5c-1.3-1.1-2.2-2.6-2.9-4.3s-1-3.7-1-5.9 0.4-4.1 1.1-5.8 1.7-3.1 3-4.3 2.9-2.1 4.7-2.7 3.9-0.9 6.1-0.9c1.3 0 2.4 0.1 3.4 0.2s1.9 0.3 2.7 0.6c0.8 0.2 1.4 0.5 2 0.7 0.6 0.3 1.1 0.5 1.6 0.7-0.2 0.4-0.4 0.8-0.6 1.4s-0.3 1.1-0.3 1.6h-0.5c-0.4-0.5-0.9-0.9-1.4-1.4-0.6-0.5-1.2-0.9-1.9-1.2s-1.5-0.6-2.3-0.8-1.8-0.3-2.7-0.3c-1.6 0-3 0.2-4.4 0.7s-2.5 1.2-3.5 2.2-1.8 2.3-2.4 3.8-0.9 3.3-0.9 5.5c-0.1 1.9 0.2 3.5 0.7 5zm60.5 8c-1.1-0.1-2.3-0.1-3.4-0.1h-3.4-3.5c-1.1 0-2.3 0-3.5 0.1 0.1-1.6 0.1-3.2 0.2-4.8s0.1-3.2 0.1-4.9v-6.5c0-1.7 0-3.3-0.1-4.9s-0.1-3.2-0.2-4.9c1.1 0.1 2.3 0.1 3.4 0.1s2.3 0.1 3.4 0.1 2.3 0 3.4-0.1c1.1 0 2.2-0.1 3.4-0.1-0.1 0.4-0.1 0.8-0.1 1.1 0 0.4 0 0.8 0.1 1.1-0.8-0.1-1.6-0.1-2.2-0.2-0.7-0.1-1.4-0.1-2.1-0.2s-1.6-0.1-2.5-0.1-2-0.1-3.2-0.1c0 0.8-0.1 1.6-0.1 2.3s-0.1 1.6-0.1 2.5v2.9 2.1h3c0.9 0 1.7-0.1 2.4-0.1s1.4-0.1 2-0.1 1.2-0.1 1.8-0.1c-0.1 0.4-0.1 0.8-0.1 1.2s0 0.8 0.1 1.1c-0.7-0.1-1.4-0.1-2.3-0.2s-1.7-0.1-2.6-0.1h-2.5-1.8v0.7 1 3.8 3.6c0 0.9 0 1.6 0.1 2.1h2.7c1 0 1.9 0 2.8-0.1 0.9 0 1.8-0.1 2.6-0.2s1.5-0.2 2.1-0.3c-0.1 0.2-0.1 0.4-0.1 0.6v0.6c0.1 0.5 0.1 0.9 0.2 1.1z"/>
</g>
</svg>
