<?xml version="1.0" encoding="utf-8"?>
<!-- Generator: Adobe Illustrator 17.1.0, SVG Export Plug-In . SVG Version: 6.00 Build 0)  -->
<!DOCTYPE svg PUBLIC "-//W3C//DTD SVG 1.1//EN" "http://www.w3.org/Graphics/SVG/1.1/DTD/svg11.dtd">
<svg version="1.1" id="Layer_1" xmlns="http://www.w3.org/2000/svg" xmlns:xlink="http://www.w3.org/1999/xlink" x="0px" y="0px"
	 viewBox="20 0 800 168" width="200px" height="42px" enable-background="new 0 0 766 177" xml:space="preserve">
<g>
	<path fill="#FFFFFF" d="M84.9,92.7l1.1-6.9l-0.5-0.5c-1.1,0.9-2.4,1.9-4.1,3c-1.6,1.1-3.3,2.1-5.4,3.1c-1.9,0.9-4.1,1.8-6.5,2.4
		c-2.3,0.7-4.9,1.1-7.7,1.1c-4.6,0-8.9-0.7-12.8-2.2c-3.9-1.5-7.3-3.7-10.3-6.8c-2.9-3.1-5.1-7-6.8-11.7c-1.6-4.7-2.4-10.3-2.4-16.8
		c0-6.5,0.8-12,2.4-16.7c1.6-4.7,3.9-8.6,6.8-11.7c3-3.1,6.4-5.4,10.3-6.9c4-1.5,8.2-2.2,12.8-2.2c2.8,0,5.4,0.4,7.7,1.2
		c2.3,0.7,4.4,1.6,6.3,2.7c1.9,1.1,3.5,2.2,4.9,3.4c1.4,1.2,2.5,2.2,3.3,3.1l0.7-0.2c0.2-1.2,0.5-2.8,0.9-4.7
		c0.4-1.9,0.9-3.3,1.5-4.4c-3.3-1.5-7-2.7-11.3-3.7c-4.2-1.1-8.9-1.6-14-1.6c-6.5,0-12.4,0.9-17.7,2.8c-5.4,1.9-10,4.6-13.9,8.2
		c-3.8,3.6-6.8,8-9,13.2C19.1,45.2,18,51,18,57.6c0,6.6,1,12.5,3.1,17.7c2.2,5.1,5.1,9.5,8.9,13.1c3.8,3.6,8.3,6.3,13.5,8
		c5.2,1.7,10.9,2.6,17,2.6c2.9,0,5.6-0.2,8.3-0.7c2.6-0.5,5-1,7.1-1.5c2.2-0.6,4-1.3,5.5-2C83,94.1,84.2,93.4,84.9,92.7L84.9,92.7z"
		/>
	<path fill="#FFFFFF" d="M102.3,47.6v20.1c0,5.1-0.1,10.2-0.4,15.2c-0.2,5-0.3,9.9-0.6,14.7c3.7-0.2,7.3-0.2,10.7-0.2
		c3.5,0,7.1,0,10.8,0c3.6,0,7.2,0,10.7,0c3.6,0,7.2,0.1,10.7,0.2c-0.4-1.2-0.6-2.3-0.6-3.1c0-0.9,0.2-2.1,0.6-3.5
		c-5.8,0.8-11.3,1.2-16.3,1.4c-5.1,0.1-10.3,0.1-15.9,0.1c-0.1-5.7-0.2-12.1-0.2-19.2c-0.1-7.2-0.1-15.7-0.1-25.5
		c0-5.1,0.1-10.1,0.2-15c0.2-5,0.5-10,0.7-15.2c-1,0.2-2,0.3-2.9,0.5c-0.9,0.1-1.9,0.1-2.8,0.1c-0.9,0-1.9,0-2.8-0.1
		c-0.9-0.2-1.9-0.3-2.9-0.5c0.2,5.1,0.4,10.2,0.6,15.2C102.2,37.5,102.3,42.5,102.3,47.6L102.3,47.6z"/>
	<path fill-rule="evenodd" clip-rule="evenodd" fill="#FFFFFF" d="M154.1,57.6c0,6.6,1.1,12.5,3.1,17.7c2.2,5.1,5.2,9.5,9,13.1
		c3.9,3.6,8.5,6.3,13.9,8c5.4,1.7,11.2,2.6,17.6,2.6c6.5,0,12.4-0.9,17.7-2.6c5.4-1.8,9.9-4.5,13.8-8c3.9-3.6,6.9-7.9,9-13.1
		c2.2-5.2,3.3-11.1,3.3-17.7c0-6.6-1.1-12.5-3.3-17.6c-2.1-5.2-5.1-9.6-9-13.2c-3.8-3.6-8.4-6.3-13.8-8.2
		c-5.4-1.9-11.3-2.8-17.7-2.8c-6.4,0-12.2,0.9-17.6,2.8c-5.4,1.9-10,4.6-13.9,8.2c-3.8,3.6-6.8,8-9,13.2
		C155.2,45.2,154.1,51,154.1,57.6L154.1,57.6z M230,57.6c0,6.5-0.8,12-2.4,16.8c-1.6,4.7-3.9,8.6-6.9,11.7c-2.9,3-6.3,5.3-10.3,6.8
		c-3.9,1.5-8.1,2.2-12.7,2.2c-4.5,0-8.7-0.7-12.7-2.2c-3.9-1.5-7.3-3.7-10.3-6.8c-2.9-3.1-5.1-7-6.8-11.7
		c-1.6-4.7-2.4-10.3-2.4-16.8c0-6.5,0.8-12,2.4-16.7c1.6-4.7,3.9-8.6,6.8-11.7c3-3.1,6.4-5.4,10.3-6.9c4-1.5,8.2-2.2,12.7-2.2
		c4.6,0,8.8,0.7,12.7,2.2c4,1.5,7.4,3.8,10.3,6.9c3,3,5.2,6.9,6.9,11.7C229.2,45.6,230,51.2,230,57.6L230,57.6z"/>
	<path fill="#FFFFFF" d="M276.5,97.5c1-0.2,2.3-0.2,3.8-0.2c1.3,0,2.6,0.1,3.8,0.2c5.1-13.3,10.5-26.6,16.1-39.9
		c5.6-13.3,11.4-26.7,17.5-40.2c-1.7,0.4-3.1,0.6-4.3,0.6c-1.2,0-2.6-0.2-4.3-0.6c-0.9,2.6-1.9,5.6-3.1,9.1
		c-1.2,3.5-2.6,7.3-4.2,11.3c-1.5,4-3,8.3-4.7,12.7c-1.6,4.4-3.3,8.7-5,12.9c-1.6,4.2-3.3,8.3-4.9,12.2c-1.6,3.9-3.1,7.4-4.5,10.6
		c-2.5-5.9-4.9-11.9-7.3-17.8c-2.4-6-4.8-11.9-7.1-17.7c-2.3-5.8-4.4-11.5-6.5-17.1c-2-5.7-3.9-11.1-5.6-16.2
		c-1.1,0.2-2.1,0.3-3.1,0.5c-1,0.1-2,0.1-2.9,0.1c-0.9,0-1.9,0-2.9-0.1c-1-0.2-2.1-0.3-3.1-0.5c2.8,6.7,5.7,13.8,8.7,21.2
		c3.1,7.5,6.1,14.8,9,21.9c3,7.1,5.7,14,8.3,20.4C272.6,87.4,274.7,92.9,276.5,97.5L276.5,97.5z"/>
	<path fill="#FFFFFF" d="M331.2,47.5v20.1c0,5.1-0.1,10.2-0.4,15.2c-0.2,4.9-0.3,9.8-0.6,14.8c3.6-0.2,7.1-0.2,10.6-0.2
		c3.5,0,7,0,10.6,0c3.6,0,7.1,0,10.5,0c3.5,0,7,0.1,10.5,0.2c-0.2-0.8-0.4-1.8-0.4-3c0-0.5,0-1.1,0-1.8c0.1-0.7,0.2-1.3,0.4-1.9
		c-1.9,0.4-4.1,0.7-6.6,0.9c-2.5,0.2-5.2,0.3-8,0.5c-2.8,0.1-5.7,0.1-8.6,0.1c-2.9,0-5.6,0-8.2,0c-0.1-1.5-0.2-3.7-0.2-6.5
		c0-2.9,0-6.5,0-11v-7v-4.5c0-1.2,0-2.3,0-3c0.1-0.9,0.1-1.6,0.1-2.3c1.4,0,3.3,0,5.6,0.1c2.4,0,4.9,0,7.6,0.1c2.7,0,5.4,0.1,8,0.2
		c2.7,0.2,5.1,0.3,7.1,0.6c-0.2-1.2-0.4-2.3-0.4-3.5c0-1.2,0.1-2.4,0.4-3.6c-1.7,0.2-3.5,0.3-5.5,0.5c-1.9,0.1-3.9,0.2-6.2,0.3
		c-2.3,0.1-4.7,0.2-7.5,0.2c-2.7,0.1-5.8,0.1-9.2,0.1c0-1.5,0-3.7-0.1-6.5c0-2.9,0-5.8,0-8.9c0-2.9,0-5.4,0.1-7.7
		c0.2-2.3,0.3-4.6,0.3-7.1c3.8,0,7.1,0.1,9.8,0.2c2.7,0.1,5.2,0.2,7.5,0.3c2.3,0.2,4.5,0.3,6.5,0.5c2.1,0.2,4.4,0.3,6.9,0.5
		c-0.2-1.2-0.4-2.3-0.4-3.5c0-1.2,0.1-2.3,0.4-3.5c-3.5,0.2-7,0.3-10.4,0.5c-3.4,0.1-6.9,0.1-10.4,0.1c-3.5,0-7,0-10.5-0.1
		c-3.4-0.2-6.9-0.3-10.4-0.5c0.2,5,0.4,10,0.6,14.9C331.1,37.3,331.2,42.4,331.2,47.5L331.2,47.5z"/>
	<path fill-rule="evenodd" clip-rule="evenodd" fill="#FFFFFF" d="M389.5,47.6v20.1c0,5.1-0.1,10.2-0.4,15.2
		c-0.2,5-0.3,9.9-0.6,14.7c1.8-0.2,3.7-0.2,5.7-0.2c2,0,3.9,0.1,5.7,0.2c-0.2-4.8-0.5-9.7-0.7-14.7c-0.2-5-0.2-10-0.2-15.2v-8.5h4.4
		c2.5,2.6,5.2,5.7,8.2,9.4c3,3.7,6,7.3,8.9,11.1c2.9,3.7,5.5,7.2,7.8,10.5c2.4,3.3,4.2,5.7,5.4,7.3c1.1-0.2,2.2-0.2,3.4-0.2
		c1.2,0,2.3,0,3.4,0c1.2,0,2.3,0,3.5,0c1.2,0,2.3,0.1,3.5,0.2c-1.1-1.1-2.5-2.7-4.3-4.8c-1.8-2.1-3.7-4.4-5.7-6.9
		c-2-2.6-4.1-5.2-6.3-7.9c-2.2-2.8-4.3-5.4-6.3-7.9c-2-2.6-3.8-4.9-5.5-7c-1.6-2.1-2.9-3.7-3.8-4.9c2.3-0.3,4.7-0.9,7.5-1.9
		c2.8-1,5.4-2.4,7.8-4.1c2.4-1.8,4.4-4,6.1-6.6c1.7-2.7,2.6-5.9,2.6-9.7c0-3.5-0.7-6.4-2-8.7c-1.2-2.3-3-4.2-5.2-5.6
		c-2.2-1.5-4.7-2.5-7.7-3.1c-3-0.6-6.1-0.9-9.3-0.9c-2.3,0-4.5,0.1-6.6,0.4c-2.2,0.2-4.4,0.2-6.6,0.2c-2.3,0-4.5,0-6.6-0.1
		c-2.2-0.2-4.4-0.3-6.6-0.5c0.2,5.1,0.4,10.2,0.6,15.2C389.4,37.5,389.5,42.5,389.5,47.6L389.5,47.6z M399.1,54.3v-6.6
		c0-4.2,0.1-8.4,0.2-12.6c0.2-4.2,0.3-8.4,0.5-12.7c1.2-0.2,2.8-0.3,4.5-0.4c1.8-0.2,4-0.2,6.8-0.2c2,0,4.1,0.2,6.2,0.7
		c2.1,0.4,4,1.2,5.8,2.3c1.8,1.2,3.2,2.8,4.3,4.8c1.2,1.9,1.7,4.4,1.7,7.5c0,3.5-0.7,6.4-2.2,8.7c-1.4,2.3-3.2,4.1-5.4,5.5
		c-2.2,1.3-4.6,2.3-7.2,2.8c-2.6,0.5-5.1,0.8-7.5,0.8c-1.6,0-3,0-4.3-0.1C401.3,54.6,400.2,54.5,399.1,54.3L399.1,54.3z"/>
	<path fill-rule="evenodd" clip-rule="evenodd" fill="#FFFFFF" d="M502.7,56.3V21.7h10.5c3,0,5.8,0.2,8.2,0.7
		c2.4,0.4,4.4,1.2,6.1,2.3c1.7,1.2,3,2.8,4,4.9c0.9,2.1,1.4,4.8,1.4,8.2c0,4-0.7,7.2-2.1,9.8c-1.3,2.5-3.1,4.5-5.2,5.9
		c-2.1,1.4-4.4,2.4-7,2.9c-2.6,0.5-5.1,0.8-7.5,0.8C508.1,57.3,505.4,57,502.7,56.3L502.7,56.3z M493.2,47.6v20.1
		c0,5.1-0.1,10.2-0.3,15.2c-0.2,5-0.3,9.9-0.6,14.7c1.8-0.2,3.7-0.2,5.7-0.2c2,0,3.9,0.1,5.7,0.2c-0.2-4.8-0.5-9.7-0.7-14.7
		c-0.2-5-0.2-10-0.2-15.2v-6.4c1.6,0.2,3.1,0.3,4.5,0.3c1.5,0,3.1,0,4.9,0c2.8,0,6-0.3,9.6-0.9c3.7-0.6,7.1-1.8,10.3-3.6
		c3.3-1.8,6-4.3,8.2-7.5c2.3-3.2,3.4-7.3,3.4-12.5c0-3.3-0.5-6-1.4-8.2c-0.9-2.3-2.2-4.1-3.7-5.6c-1.5-1.5-3.1-2.6-5-3.4
		c-1.9-0.8-3.8-1.4-5.7-1.7c-1.9-0.4-3.7-0.6-5.4-0.7c-1.7-0.1-3.1-0.1-4.3-0.1c-0.9,0-1.9,0-3.1,0.1c-1.2,0.1-2.6,0.2-4,0.2
		c-1.3,0-2.6,0-4,0.1c-1.3,0.1-2.4,0.1-3.4,0.1c-1.9,0-3.8,0-5.7-0.1c-1.9-0.2-3.7-0.3-5.6-0.5c0.2,5.1,0.4,10.2,0.6,15.2
		C493.1,37.5,493.2,42.5,493.2,47.6L493.2,47.6z"/>
	<path fill-rule="evenodd" clip-rule="evenodd" fill="#FFFFFF" d="M564.3,61.2c2,0,4.1,0,6.3,0.1c2.2,0.1,4.3,0.1,6.3,0.1
		c2.2,0,4.4,0,6.5,0c2.2-0.1,4.4-0.2,6.5-0.2L577,31.6L564.3,61.2L564.3,61.2z M616,97.5c-1.1-0.2-2.1-0.2-3.2-0.2c-0.9,0-1.9,0-3,0
		c-1.1,0-2.1,0-3.1,0c-0.9,0-1.9,0.1-3,0.2c-0.5-1.8-1.3-3.9-2.2-6.4c-0.9-2.6-2-5.2-3.2-7.9c-1.1-2.8-2.2-5.6-3.4-8.4
		c-1.2-2.9-2.3-5.6-3.3-8.2c-2.5-0.1-5-0.1-7.6-0.1c-2.6-0.1-5.1-0.1-7.7-0.1c-2.4,0-4.8,0-7.1,0.1c-2.3,0-4.7,0-7.1,0.1
		c-2.5,6.1-4.7,11.9-6.8,17.4c-2,5.4-3.5,10-4.5,13.5c-1.3-0.2-2.8-0.2-4.3-0.2c-1.6,0-3,0.1-4.3,0.2c6.3-13.6,12.4-27.1,18.4-40.6
		c6-13.4,12-27.1,18.1-41h2.2c1.9,4.5,3.9,9.4,6.1,14.7c2.2,5.2,4.4,10.5,6.6,15.9c2.3,5.4,4.5,10.7,6.8,16
		c2.3,5.3,4.4,10.2,6.3,14.8c2,4.5,3.8,8.6,5.4,12.1C613.6,92.9,614.9,95.6,616,97.5L616,97.5z"/>
	<path fill-rule="evenodd" clip-rule="evenodd" fill="#FFFFFF" d="M629.4,47.6v20.1c0,5.1-0.1,10.2-0.3,15.2
		c-0.2,5-0.3,9.9-0.6,14.7c1.8-0.2,3.7-0.2,5.7-0.2c2,0,3.9,0.1,5.7,0.2c-0.2-4.8-0.5-9.7-0.7-14.7c-0.2-5-0.2-10-0.2-15.2v-8.5h4.4
		c2.5,2.6,5.2,5.7,8.2,9.4c3,3.7,6,7.3,8.9,11.1c2.9,3.7,5.5,7.2,7.8,10.5c2.4,3.3,4.2,5.7,5.4,7.3c1.1-0.2,2.2-0.2,3.4-0.2
		c1.2,0,2.3,0,3.4,0c1.2,0,2.3,0,3.5,0c1.2,0,2.3,0.1,3.5,0.2c-1.1-1.1-2.5-2.7-4.3-4.8c-1.8-2.1-3.7-4.4-5.7-6.9
		c-2-2.6-4.1-5.2-6.3-7.9c-2.2-2.8-4.3-5.4-6.3-7.9c-2-2.6-3.8-4.9-5.5-7c-1.6-2.1-2.9-3.7-3.8-4.9c2.3-0.3,4.7-0.9,7.5-1.9
		c2.8-1,5.4-2.4,7.8-4.1c2.4-1.8,4.4-4,6.1-6.6c1.7-2.7,2.6-5.9,2.6-9.7c0-3.5-0.7-6.4-2-8.7c-1.2-2.3-3-4.2-5.2-5.6
		c-2.2-1.5-4.7-2.5-7.7-3.1c-3-0.6-6.1-0.9-9.3-0.9c-2.3,0-4.5,0.1-6.6,0.4c-2.2,0.2-4.4,0.2-6.6,0.2c-2.3,0-4.5,0-6.6-0.1
		c-2.2-0.2-4.4-0.3-6.6-0.5c0.2,5.1,0.4,10.2,0.6,15.2C629.2,37.5,629.4,42.5,629.4,47.6L629.4,47.6z M638.9,54.3v-6.6
		c0-4.2,0.1-8.4,0.2-12.6c0.2-4.2,0.3-8.4,0.5-12.7c1.2-0.2,2.8-0.3,4.5-0.4c1.8-0.2,4-0.2,6.8-0.2c2,0,4.1,0.2,6.2,0.7
		c2.1,0.4,4,1.2,5.8,2.3c1.8,1.2,3.2,2.8,4.3,4.8c1.2,1.9,1.8,4.4,1.8,7.5c0,3.5-0.7,6.4-2.2,8.7c-1.4,2.3-3.2,4.1-5.4,5.5
		c-2.2,1.3-4.6,2.3-7.2,2.8c-2.6,0.5-5.1,0.8-7.5,0.8c-1.6,0-3,0-4.3-0.1C641.2,54.6,640,54.5,638.9,54.3L638.9,54.3z"/>
	<path fill="#FFFFFF" d="M699.7,97.5c1.8-0.2,3.7-0.2,5.7-0.2c2,0,3.9,0.1,5.7,0.2c-0.2-4.8-0.5-9.7-0.7-14.7
		c-0.2-5-0.2-10-0.2-15.2V57.5c0-0.5,0.2-0.7,0.6-0.7c0.3,0,0.8,0.3,1.4,0.9c1.2,1.2,3.1,3.4,5.7,6.5c2.6,3,5.6,6.5,8.7,10.4
		c3.3,3.8,6.6,7.8,9.9,11.9c3.4,4.1,6.5,7.8,9.3,11c1.1-0.2,2.1-0.2,3.1-0.2c1.1,0,2.2,0,3.3,0c1.2,0,2.3,0,3.5,0
		c1.2,0,2.3,0.1,3.5,0.2c-6.6-7.4-13.1-14.7-19.6-22c-6.4-7.4-12.7-14.6-19-21.7c2.1-2.4,4.7-5.2,7.8-8.4c3.2-3.3,6.5-6.6,9.9-9.9
		c3.5-3.3,7-6.6,10.4-9.8c3.4-3.2,6.5-5.9,9.2-8.3c-0.9,0.2-1.9,0.3-2.8,0.5c-0.9,0.1-1.9,0.1-2.8,0.1c-0.8,0-1.6,0-2.3-0.1
		c-0.8-0.2-1.6-0.3-2.5-0.5c-2.7,3.1-5.6,6.3-8.5,9.7c-3,3.3-5.9,6.5-9,9.7c-3,3.2-6.1,6.3-9.1,9.2c-3,3-5.8,5.6-8.5,7.9
		c-0.8,0.7-1.3,1-1.6,1c-0.5,0-0.7-0.3-0.7-0.9v-6.4c0-5.1,0.1-10.1,0.2-15c0.2-5,0.5-10,0.7-15.2c-1,0.2-2,0.3-2.9,0.5
		c-0.9,0.1-1.9,0.1-2.8,0.1c-0.9,0-1.9,0-2.8-0.1c-0.9-0.2-1.9-0.3-2.9-0.5c0.2,5.1,0.4,10.2,0.6,15.2c0.2,4.9,0.4,9.9,0.4,15v20.1
		c0,5.1-0.1,10.2-0.4,15.2C700.1,87.8,699.9,92.7,699.7,97.5L699.7,97.5z"/>
</g>
<g>
	<path fill="#FFFFFF" d="M524.6,127.4c-1-1-2.1-1.7-3.3-2.2c-1.3-0.5-2.7-0.7-4.2-0.7c-1.5,0-2.8,0.2-4.1,0.7
		c-1.3,0.5-2.4,1.2-3.3,2.2c-1,1-1.7,2.3-2.2,3.8c-0.5,1.5-0.8,3.3-0.8,5.5c0,2.1,0.3,3.9,0.8,5.5c0.5,1.5,1.3,2.8,2.2,3.8
		c1,1,2.1,1.7,3.3,2.2c1.3,0.5,2.7,0.7,4.1,0.7c1.5,0,2.9-0.2,4.2-0.7c1.3-0.5,2.4-1.2,3.3-2.2c0.9-1,1.7-2.3,2.2-3.8
		c0.5-1.5,0.8-3.4,0.8-5.5c0-2.1-0.3-3.9-0.8-5.5C526.3,129.6,525.6,128.4,524.6,127.4z"/>
	<path fill="#FFFFFF" d="M346.8,137.8c0.7,0,1.3,0,2.1,0c0.7,0,1.4,0,2.1,0c0.7,0,1.4,0,2.1,0c0.7,0,1.4,0,2.1-0.1l-4.2-9.7
		L346.8,137.8z"/>
	<path fill="#FFFFFF" d="M14.5,111.8V162H763v-50.2H14.5z M56.9,125.9c-0.5-0.1-1.1-0.1-1.8-0.2c-0.7-0.1-1.4-0.1-2.1-0.1
		c-0.7,0-1.4-0.1-2.2-0.1c-0.7,0-1.4,0-2.1,0c-0.1,2.6-0.1,5.2-0.1,7.9v6.5c0,1.7,0,3.3,0.1,4.9c0.1,1.6,0.1,3.2,0.2,4.8
		c-0.6-0.1-1.2-0.1-1.9-0.1c-0.7,0-1.3,0-1.9,0.1c0.1-1.6,0.1-3.2,0.2-4.8c0.1-1.6,0.1-3.3,0.1-4.9v-6.5c0-2.6,0-5.3-0.1-7.9
		c-0.7,0-1.3,0-2.1,0c-0.7,0-1.4,0-2.2,0.1c-0.7,0-1.4,0.1-2.1,0.1c-0.7,0.1-1.3,0.1-1.8,0.2c0.1-0.5,0.2-0.9,0.2-1.2
		c0-0.3-0.1-0.7-0.2-1.2c1.7,0.1,3.3,0.1,4.9,0.1c1.6,0,3.2,0.1,4.9,0.1c1.7,0,3.3,0,4.9-0.1c1.6,0,3.2-0.1,4.9-0.1
		c-0.1,0.5-0.2,0.9-0.2,1.2C56.7,125.1,56.8,125.4,56.9,125.9z M95.3,149.6c-1.1-0.1-2.3-0.1-3.4-0.1c-1.1,0-2.3,0-3.4,0
		c-1.2,0-2.3,0-3.5,0c-1.1,0-2.3,0-3.5,0.1c0.1-1.6,0.1-3.2,0.2-4.8c0.1-1.6,0.1-3.2,0.1-4.9v-6.5c0-1.7,0-3.3-0.1-4.9
		c-0.1-1.6-0.1-3.2-0.2-4.9c1.1,0.1,2.3,0.1,3.4,0.1c1.1,0,2.3,0.1,3.4,0.1c1.1,0,2.3,0,3.4-0.1c1.1,0,2.2-0.1,3.4-0.1
		c-0.1,0.4-0.1,0.8-0.1,1.1c0,0.4,0,0.8,0.1,1.1c-0.8-0.1-1.6-0.1-2.2-0.2c-0.7-0.1-1.4-0.1-2.1-0.2c-0.7-0.1-1.6-0.1-2.5-0.1
		c-0.9,0-2-0.1-3.2-0.1c0,0.8-0.1,1.6-0.1,2.3c0,0.7-0.1,1.6-0.1,2.5c0,1,0,2,0,2.9c0,0.9,0,1.6,0,2.1c1.1,0,2.1,0,3,0
		c0.9,0,1.7-0.1,2.4-0.1c0.7,0,1.4-0.1,2-0.1c0.6,0,1.2-0.1,1.8-0.1c-0.1,0.4-0.1,0.8-0.1,1.2c0,0.4,0,0.8,0.1,1.1
		c-0.7-0.1-1.4-0.1-2.3-0.2c-0.9-0.1-1.7-0.1-2.6-0.1c-0.9,0-1.7,0-2.5,0c-0.8,0-1.4,0-1.8,0c0,0.2,0,0.5,0,0.7c0,0.3,0,0.6,0,1v1.5
		v2.3c0,1.4,0,2.6,0,3.6c0,0.9,0,1.6,0.1,2.1c0.8,0,1.7,0,2.7,0c1,0,1.9,0,2.8-0.1c0.9,0,1.8-0.1,2.6-0.2c0.8-0.1,1.5-0.2,2.1-0.3
		c-0.1,0.2-0.1,0.4-0.1,0.6c0,0.2,0,0.4,0,0.6C95.2,149,95.3,149.4,95.3,149.6z M123.8,142.1c0.5,1.5,1.3,2.8,2.2,3.8
		c1,1,2.1,1.7,3.3,2.2c1.3,0.5,2.7,0.7,4.2,0.7c0.9,0,1.8-0.1,2.5-0.3c0.8-0.2,1.5-0.5,2.1-0.8c0.6-0.3,1.2-0.7,1.7-1
		c0.5-0.4,1-0.7,1.3-1l0.2,0.2l-0.3,2.2c-0.2,0.2-0.6,0.4-1.1,0.7c-0.5,0.2-1.1,0.5-1.8,0.6c-0.7,0.2-1.5,0.4-2.3,0.5
		c-0.9,0.2-1.8,0.2-2.7,0.2c-2,0-3.9-0.3-5.5-0.9c-1.7-0.6-3.2-1.4-4.4-2.6c-1.2-1.2-2.2-2.6-2.9-4.3c-0.7-1.7-1-3.6-1-5.8
		c0-2.2,0.3-4.1,1-5.8c0.7-1.7,1.7-3.1,2.9-4.3c1.3-1.2,2.8-2.1,4.5-2.7c1.7-0.6,3.7-0.9,5.8-0.9c1.7,0,3.2,0.2,4.6,0.5
		c1.4,0.3,2.6,0.8,3.7,1.2c-0.2,0.4-0.4,0.8-0.5,1.4c-0.1,0.6-0.2,1.1-0.3,1.5l-0.2,0.1c-0.3-0.3-0.6-0.6-1.1-1
		c-0.5-0.4-1-0.7-1.6-1.1c-0.6-0.4-1.3-0.7-2.1-0.9c-0.8-0.2-1.6-0.4-2.5-0.4c-1.5,0-2.9,0.2-4.2,0.7c-1.3,0.5-2.4,1.2-3.3,2.2
		c-0.9,1-1.7,2.3-2.2,3.8c-0.5,1.5-0.8,3.3-0.8,5.5C123,138.7,123.3,140.5,123.8,142.1z M189.5,144.8c0.1,1.6,0.1,3.2,0.2,4.8
		c-0.6-0.1-1.2-0.1-1.9-0.1c-0.7,0-1.3,0-1.9,0.1c0.1-1.6,0.1-3.2,0.2-4.8c0.1-1.6,0.1-3.3,0.1-4.9v-3.4c-1.4,0-2.7,0-4-0.1
		c-1.3,0-2.6,0-4,0c-1.4,0-2.7,0-4,0c-1.3,0-2.6,0-4,0.1v3.4c0,1.7,0,3.3,0.1,4.9c0.1,1.6,0.1,3.2,0.2,4.8c-0.6-0.1-1.2-0.1-1.9-0.1
		c-0.7,0-1.3,0-1.9,0.1c0.1-1.6,0.1-3.2,0.2-4.8c0.1-1.6,0.1-3.3,0.1-4.9v-6.5c0-1.7,0-3.3-0.1-4.9c-0.1-1.6-0.1-3.2-0.2-4.9
		c0.3,0.1,0.6,0.1,1,0.1c0.3,0,0.6,0.1,0.9,0.1c0.3,0,0.6,0,0.9-0.1c0.3,0,0.6-0.1,1-0.1c-0.1,1.7-0.1,3.3-0.2,4.9
		c-0.1,1.6-0.1,3.2-0.1,4.9v1.3c1.4,0,2.7,0.1,4,0.1c1.3,0,2.6,0,4,0c1.4,0,2.7,0,4,0c1.3,0,2.6,0,4-0.1v-1.3c0-1.7,0-3.3-0.1-4.9
		c-0.1-1.6-0.1-3.2-0.2-4.9c0.3,0.1,0.6,0.1,1,0.1c0.3,0,0.6,0.1,0.9,0.1c0.3,0,0.6,0,0.9-0.1c0.3,0,0.6-0.1,1-0.1
		c-0.1,1.7-0.1,3.3-0.2,4.9c-0.1,1.6-0.1,3.2-0.1,4.9v6.5C189.4,141.6,189.4,143.2,189.5,144.8z M239.6,126
		c-0.1,1.1-0.1,2.3-0.2,3.6c-0.1,1.3-0.1,2.5-0.2,3.7c-0.1,1.2-0.1,2.2-0.1,2.9c0,0.6,0,1.4,0,2.3c0,0.9,0,1.8,0,2.7
		c0,0.9,0,1.9,0,2.8c0,1,0,1.8,0,2.7c0,0.8,0,1.5,0,2.1c0,0.6,0,1,0,1.3h-0.5c-2.9-3.4-6-6.8-9.3-10.4c-3.3-3.5-6.6-7-9.9-10.5
		c0,0.7-0.1,1.7-0.1,2.8c0,1.2,0,2.8,0,4.9c0,0.5,0,1.2,0,2c0,0.8,0,1.6,0,2.5c0,0.9,0,1.7,0.1,2.6c0,0.9,0.1,1.7,0.1,2.5
		c0,0.8,0.1,1.4,0.1,2c0,0.6,0.1,1,0.1,1.2c-0.4-0.1-0.8-0.1-1.3-0.1c-0.5,0-1,0-1.4,0.1c0.1-0.3,0.1-0.7,0.2-1.4
		c0.1-0.7,0.1-1.5,0.2-2.5c0.1-1,0.1-2,0.2-3.1c0.1-1.1,0.1-2.2,0.2-3.3c0-1.1,0.1-2.2,0.1-3.3c0-1.1,0-2,0-2.8c0-2.4,0-4.5,0-6.3
		c0-1.7,0-3.1-0.1-3.9h0.6c1.5,1.7,3.2,3.5,5,5.4c1.8,1.9,3.5,3.8,5.2,5.7c1.7,1.9,3.4,3.6,4.9,5.3c1.6,1.7,2.9,3.1,4.1,4.2v-5.2
		c0-2.7,0-5.2-0.1-7.8c0-2.5-0.1-4.9-0.2-7.1c0.5,0.1,0.9,0.2,1.3,0.2c0.3,0,0.7-0.1,1.2-0.2C239.7,124.1,239.7,124.9,239.6,126z
		 M270.7,144.8c0.1,1.6,0.1,3.2,0.2,4.8c-0.6-0.1-1.2-0.1-1.9-0.1c-0.7,0-1.3,0-1.9,0.1c0.1-1.6,0.1-3.2,0.2-4.8
		c0.1-1.6,0.1-3.3,0.1-4.9v-6.5c0-1.7,0-3.3-0.1-4.9c-0.1-1.6-0.1-3.2-0.2-4.9c0.3,0.1,0.6,0.1,1,0.1c0.3,0,0.6,0.1,0.9,0.1
		c0.3,0,0.6,0,0.9-0.1c0.3,0,0.6-0.1,1-0.1c-0.1,1.7-0.1,3.3-0.2,4.9c-0.1,1.6-0.1,3.2-0.1,4.9v6.5
		C270.6,141.6,270.6,143.2,270.7,144.8z M300.9,142.1c0.5,1.5,1.3,2.8,2.2,3.8c1,1,2.1,1.7,3.3,2.2c1.3,0.5,2.7,0.7,4.2,0.7
		c0.9,0,1.8-0.1,2.5-0.3c0.8-0.2,1.5-0.5,2.1-0.8c0.6-0.3,1.2-0.7,1.7-1c0.5-0.4,1-0.7,1.3-1l0.2,0.2l-0.3,2.2
		c-0.2,0.2-0.6,0.4-1.1,0.7c-0.5,0.2-1.1,0.5-1.8,0.6c-0.7,0.2-1.5,0.4-2.3,0.5c-0.9,0.2-1.8,0.2-2.7,0.2c-2,0-3.9-0.3-5.5-0.9
		c-1.7-0.6-3.2-1.4-4.4-2.6c-1.2-1.2-2.2-2.6-2.9-4.3c-0.7-1.7-1-3.6-1-5.8c0-2.2,0.3-4.1,1-5.8c0.7-1.7,1.7-3.1,2.9-4.3
		c1.3-1.2,2.8-2.1,4.5-2.7c1.7-0.6,3.7-0.9,5.8-0.9c1.7,0,3.2,0.2,4.6,0.5c1.4,0.3,2.6,0.8,3.7,1.2c-0.2,0.4-0.4,0.8-0.5,1.4
		c-0.1,0.6-0.2,1.1-0.3,1.5l-0.2,0.1c-0.3-0.3-0.6-0.6-1.1-1c-0.5-0.4-1-0.7-1.6-1.1c-0.6-0.4-1.3-0.7-2.1-0.9
		c-0.8-0.2-1.6-0.4-2.5-0.4c-1.5,0-2.9,0.2-4.2,0.7c-1.3,0.5-2.4,1.2-3.3,2.2c-0.9,1-1.7,2.3-2.2,3.8c-0.5,1.5-0.8,3.3-0.8,5.5
		C300.1,138.7,300.4,140.5,300.9,142.1z M362.7,149.5c-0.3,0-0.7,0-1,0c-0.4,0-0.7,0-1,0c-0.3,0-0.7,0-1,0.1
		c-0.2-0.6-0.4-1.3-0.7-2.1c-0.3-0.8-0.6-1.7-1-2.6c-0.4-0.9-0.7-1.8-1.1-2.7c-0.4-0.9-0.7-1.8-1.1-2.6c-0.8,0-1.6,0-2.5-0.1
		c-0.8,0-1.7,0-2.5,0c-0.8,0-1.6,0-2.3,0c-0.8,0-1.5,0-2.3,0.1c-0.8,2-1.5,3.9-2.2,5.6c-0.7,1.8-1.2,3.3-1.5,4.4
		c-0.4-0.1-0.9-0.1-1.4-0.1c-0.5,0-1,0-1.4,0.1c2.1-4.4,4.1-8.8,6-13.2c2-4.4,3.9-8.8,5.9-13.4h0.7c0.6,1.5,1.3,3.1,2,4.8
		c0.7,1.7,1.4,3.4,2.2,5.2c0.7,1.7,1.5,3.5,2.2,5.2c0.7,1.7,1.4,3.3,2.1,4.8c0.6,1.5,1.2,2.8,1.7,4c0.5,1.2,0.9,2.1,1.3,2.7
		C363.3,149.6,363,149.5,362.7,149.5z M402.3,149.6c-1.2-0.1-2.3-0.1-3.5-0.1c-1.2,0-2.3,0-3.5,0c-1.2,0-2.4,0-3.5,0
		c-1.1,0-2.3,0-3.5,0.1c0.1-1.6,0.1-3.2,0.2-4.8c0.1-1.6,0.1-3.3,0.1-4.9v-6.5c0-1.7,0-3.3-0.1-4.9c-0.1-1.6-0.1-3.2-0.2-4.9
		c0.3,0.1,0.6,0.1,0.9,0.1c0.3,0,0.6,0.1,0.9,0.1c0.3,0,0.6,0,0.9-0.1c0.3,0,0.6-0.1,1-0.1c-0.1,1.7-0.1,3.3-0.2,4.9
		c-0.1,1.6-0.1,3.2-0.1,4.9c0,3.2,0,6,0,8.3c0,2.3,0.1,4.4,0.1,6.3c1.8,0,3.5,0,5.2-0.1c1.6,0,3.4-0.2,5.3-0.4
		c-0.1,0.5-0.2,0.8-0.2,1.1C402.1,148.9,402.1,149.2,402.3,149.6z M461.5,142.1c0.5,1.5,1.3,2.8,2.2,3.8c1,1,2.1,1.7,3.3,2.2
		c1.3,0.5,2.7,0.7,4.2,0.7c0.9,0,1.8-0.1,2.5-0.3c0.8-0.2,1.5-0.5,2.1-0.8c0.6-0.3,1.2-0.7,1.7-1c0.5-0.4,1-0.7,1.3-1l0.2,0.2
		l-0.3,2.2c-0.2,0.2-0.6,0.4-1.1,0.7c-0.5,0.2-1.1,0.5-1.8,0.6c-0.7,0.2-1.5,0.4-2.3,0.5c-0.9,0.2-1.8,0.2-2.7,0.2
		c-2,0-3.9-0.3-5.5-0.9c-1.7-0.6-3.2-1.4-4.4-2.6c-1.2-1.2-2.2-2.6-2.9-4.3c-0.7-1.7-1-3.6-1-5.8c0-2.2,0.3-4.1,1-5.8
		c0.7-1.7,1.7-3.1,2.9-4.3c1.3-1.2,2.8-2.1,4.5-2.7c1.7-0.6,3.7-0.9,5.8-0.9c1.7,0,3.2,0.2,4.6,0.5c1.4,0.3,2.6,0.8,3.7,1.2
		c-0.2,0.4-0.4,0.8-0.5,1.4c-0.1,0.6-0.2,1.1-0.3,1.5l-0.2,0.1c-0.3-0.3-0.6-0.6-1.1-1c-0.5-0.4-1-0.7-1.6-1.1
		c-0.6-0.4-1.3-0.7-2.1-0.9c-0.8-0.2-1.6-0.4-2.5-0.4c-1.5,0-2.9,0.2-4.2,0.7c-1.3,0.5-2.4,1.2-3.3,2.2c-1,1-1.7,2.3-2.2,3.8
		c-0.5,1.5-0.8,3.3-0.8,5.5C460.8,138.7,461,140.5,461.5,142.1z M530.3,142.4c-0.7,1.7-1.7,3.1-2.9,4.3c-1.3,1.2-2.8,2-4.5,2.6
		c-1.7,0.6-3.7,0.9-5.8,0.9c-2.1,0-4-0.3-5.7-0.9c-1.7-0.6-3.2-1.4-4.5-2.6c-1.3-1.2-2.2-2.6-2.9-4.3c-0.7-1.7-1-3.6-1-5.8
		c0-2.2,0.3-4.1,1-5.8c0.7-1.7,1.7-3.1,2.9-4.3c1.3-1.2,2.8-2.1,4.5-2.7c1.7-0.6,3.7-0.9,5.7-0.9c2.1,0,4,0.3,5.8,0.9
		c1.7,0.6,3.2,1.5,4.5,2.7c1.3,1.2,2.2,2.6,2.9,4.3c0.7,1.7,1,3.6,1,5.8C531.4,138.8,531,140.7,530.3,142.4z M570.9,149.6
		c-1.2-0.1-2.3-0.1-3.5-0.1c-1.2,0-2.3,0-3.5,0c-1.2,0-2.4,0-3.5,0c-1.1,0-2.3,0-3.5,0.1c0.1-1.6,0.1-3.2,0.2-4.8
		c0.1-1.6,0.1-3.3,0.1-4.9v-6.5c0-1.7,0-3.3-0.1-4.9c-0.1-1.6-0.1-3.2-0.2-4.9c0.3,0.1,0.6,0.1,1,0.1c0.3,0,0.6,0.1,0.9,0.1
		c0.3,0,0.6,0,0.9-0.1c0.3,0,0.6-0.1,0.9-0.1c-0.1,1.7-0.1,3.3-0.2,4.9c-0.1,1.6-0.1,3.2-0.1,4.9c0,3.2,0,6,0,8.3
		c0,2.3,0.1,4.4,0.1,6.3c1.8,0,3.5,0,5.2-0.1c1.6,0,3.4-0.2,5.3-0.4c-0.1,0.5-0.2,0.8-0.2,1.1C570.7,148.9,570.8,149.2,570.9,149.6z
		 M610.4,149.6c-1.2-0.1-2.3-0.1-3.5-0.1c-1.2,0-2.3,0-3.5,0c-1.2,0-2.4,0-3.5,0c-1.1,0-2.3,0-3.5,0.1c0.1-1.6,0.1-3.2,0.2-4.8
		c0.1-1.6,0.1-3.3,0.1-4.9v-6.5c0-1.7,0-3.3-0.1-4.9c-0.1-1.6-0.1-3.2-0.2-4.9c0.3,0.1,0.6,0.1,1,0.1c0.3,0,0.6,0.1,0.9,0.1
		c0.3,0,0.6,0,0.9-0.1c0.3,0,0.6-0.1,0.9-0.1c-0.1,1.7-0.1,3.3-0.2,4.9c-0.1,1.6-0.1,3.2-0.1,4.9c0,3.2,0,6,0,8.3
		c0,2.3,0.1,4.4,0.1,6.3c1.8,0,3.5,0,5.2-0.1c1.6,0,3.4-0.2,5.3-0.4c-0.1,0.5-0.2,0.8-0.2,1.1C610.2,148.9,610.3,149.2,610.4,149.6z
		 M649.7,149.6c-1.1-0.1-2.3-0.1-3.4-0.1c-1.1,0-2.3,0-3.4,0c-1.2,0-2.3,0-3.5,0c-1.1,0-2.3,0-3.5,0.1c0.1-1.6,0.1-3.2,0.2-4.8
		c0.1-1.6,0.1-3.2,0.1-4.9v-6.5c0-1.7,0-3.3-0.1-4.9c-0.1-1.6-0.1-3.2-0.2-4.9c1.1,0.1,2.3,0.1,3.4,0.1c1.1,0,2.3,0.1,3.4,0.1
		c1.1,0,2.3,0,3.4-0.1c1.1,0,2.2-0.1,3.4-0.1c-0.1,0.4-0.1,0.8-0.1,1.1c0,0.4,0,0.8,0.1,1.1c-0.8-0.1-1.6-0.1-2.2-0.2
		c-0.7-0.1-1.4-0.1-2.1-0.2c-0.7-0.1-1.6-0.1-2.5-0.1c-0.9,0-2-0.1-3.2-0.1c0,0.8-0.1,1.6-0.1,2.3c0,0.7-0.1,1.6-0.1,2.5
		c0,1,0,2,0,2.9c0,0.9,0,1.6,0,2.1c1.1,0,2.1,0,3,0c0.9,0,1.7-0.1,2.4-0.1c0.7,0,1.4-0.1,2-0.1c0.6,0,1.2-0.1,1.8-0.1
		c-0.1,0.4-0.1,0.8-0.1,1.2c0,0.4,0,0.8,0.1,1.1c-0.7-0.1-1.4-0.1-2.3-0.2c-0.9-0.1-1.7-0.1-2.6-0.1c-0.9,0-1.7,0-2.5,0
		c-0.8,0-1.4,0-1.8,0c0,0.2,0,0.5,0,0.7c0,0.3,0,0.6,0,1v1.5v2.3c0,1.4,0,2.6,0,3.6c0,0.9,0,1.6,0.1,2.1c0.8,0,1.7,0,2.7,0
		c1,0,1.9,0,2.8-0.1c0.9,0,1.8-0.1,2.6-0.2c0.8-0.1,1.5-0.2,2.1-0.3c-0.1,0.2-0.1,0.4-0.1,0.6c0,0.2,0,0.4,0,0.6
		C649.6,149,649.6,149.4,649.7,149.6z M678.8,141.6c0.5,1.5,1.2,2.8,2.2,3.8c1,1,2.2,1.8,3.6,2.4c1.4,0.6,3,0.8,4.8,0.8
		c0.5,0,1.1,0,1.7-0.1c0.6-0.1,1.1-0.1,1.7-0.2c0.5-0.1,1.1-0.2,1.5-0.4c0.5-0.2,0.9-0.3,1.2-0.5c0-0.8,0-1.5,0.1-2.3s0-1.5,0-2.3
		c0-0.9,0-1.8-0.1-2.7c0-0.9-0.1-1.7-0.1-2.5c0.6,0.1,1.2,0.2,1.8,0.2c0.3,0,0.6,0,0.8,0c0.3,0,0.5-0.1,0.8-0.2
		c-0.1,0.6-0.1,1.5-0.1,2.8c0,1.3,0,2.9,0,5c0,0.5,0,1,0,1.5c0,0.5,0,1,0,1.5c-0.5,0.2-1.2,0.4-2,0.6c-0.8,0.2-1.6,0.4-2.5,0.5
		c-0.9,0.1-1.8,0.3-2.7,0.4c-0.9,0.1-1.7,0.2-2.5,0.2c-2.3,0-4.3-0.3-6.1-0.8c-1.8-0.5-3.4-1.4-4.6-2.5c-1.3-1.1-2.2-2.6-2.9-4.3
		c-0.7-1.7-1-3.7-1-5.9c0-2.2,0.4-4.1,1.1-5.8c0.7-1.7,1.7-3.1,3-4.3c1.3-1.2,2.9-2.1,4.7-2.7c1.8-0.6,3.9-0.9,6.1-0.9
		c1.3,0,2.4,0.1,3.4,0.2c1,0.1,1.9,0.3,2.7,0.6c0.8,0.2,1.4,0.5,2,0.7c0.6,0.3,1.1,0.5,1.6,0.7c-0.2,0.4-0.4,0.8-0.6,1.4
		c-0.2,0.6-0.3,1.1-0.3,1.6h-0.5c-0.4-0.5-0.9-0.9-1.4-1.4c-0.6-0.5-1.2-0.9-1.9-1.2c-0.7-0.3-1.5-0.6-2.3-0.8
		c-0.8-0.2-1.8-0.3-2.7-0.3c-1.6,0-3,0.2-4.4,0.7c-1.4,0.5-2.5,1.2-3.5,2.2c-1,1-1.8,2.3-2.4,3.8c-0.6,1.5-0.9,3.3-0.9,5.5
		C678,138.5,678.3,140.1,678.8,141.6z M739.3,149.6c-1.1-0.1-2.3-0.1-3.4-0.1c-1.1,0-2.3,0-3.4,0c-1.2,0-2.3,0-3.5,0
		c-1.1,0-2.3,0-3.5,0.1c0.1-1.6,0.1-3.2,0.2-4.8c0.1-1.6,0.1-3.2,0.1-4.9v-6.5c0-1.7,0-3.3-0.1-4.9c-0.1-1.6-0.1-3.2-0.2-4.9
		c1.1,0.1,2.3,0.1,3.4,0.1c1.1,0,2.3,0.1,3.4,0.1c1.1,0,2.3,0,3.4-0.1c1.1,0,2.2-0.1,3.4-0.1c-0.1,0.4-0.1,0.8-0.1,1.1
		c0,0.4,0,0.8,0.1,1.1c-0.8-0.1-1.6-0.1-2.2-0.2c-0.7-0.1-1.4-0.1-2.1-0.2c-0.7-0.1-1.6-0.1-2.5-0.1c-0.9,0-2-0.1-3.2-0.1
		c0,0.8-0.1,1.6-0.1,2.3c0,0.7-0.1,1.6-0.1,2.5c0,1,0,2,0,2.9c0,0.9,0,1.6,0,2.1c1.1,0,2.1,0,3,0c0.9,0,1.7-0.1,2.4-0.1
		c0.7,0,1.4-0.1,2-0.1c0.6,0,1.2-0.1,1.8-0.1c-0.1,0.4-0.1,0.8-0.1,1.2c0,0.4,0,0.8,0.1,1.1c-0.7-0.1-1.4-0.1-2.3-0.2
		c-0.9-0.1-1.7-0.1-2.6-0.1c-0.9,0-1.7,0-2.5,0c-0.8,0-1.4,0-1.8,0c0,0.2,0,0.5,0,0.7c0,0.3,0,0.6,0,1v1.5v2.3c0,1.4,0,2.6,0,3.6
		c0,0.9,0,1.6,0.1,2.1c0.8,0,1.7,0,2.7,0c1,0,1.9,0,2.8-0.1c0.9,0,1.8-0.1,2.6-0.2c0.8-0.1,1.5-0.2,2.1-0.3
		c-0.1,0.2-0.1,0.4-0.1,0.6c0,0.2,0,0.4,0,0.6C739.2,149,739.2,149.4,739.3,149.6z"/>
</g>
</svg>
